<svg width="145" height="145" viewBox="0 0 145 145" fill="none" xmlns="http://www.w3.org/2000/svg">
<g clip-path="url(#clip0_1_2)">
<rect x="1" y="1" width="143" height="143" rx="25" fill="#161217" stroke="#392C3E" stroke-width="2"/>
<path d="M11.632 131.336C11.2907 131.336 10.992 131.229 10.736 131.016C10.48 130.803 10.352 130.483 10.352 130.056V127.24C10.352 126.728 10.4587 126.323 10.672 126.024C10.928 125.725 11.312 125.427 11.824 125.128L28.912 113.416L11.824 101.704C11.312 101.363 10.928 101.043 10.672 100.744C10.4587 100.445 10.352 100.04 10.352 99.528V96.712C10.352 96.2853 10.48 95.9653 10.736 95.752C10.992 95.5387 11.2907 95.432 11.632 95.432C11.888 95.432 12.1653 95.5173 12.464 95.688C12.7627 95.816 12.9973 95.944 13.168 96.072L33.264 109.896C33.9467 110.365 34.416 110.813 34.672 111.24C34.9707 111.667 35.12 112.2 35.12 112.84V113.928C35.12 114.525 34.9707 115.059 34.672 115.528C34.416 115.955 33.9467 116.403 33.264 116.872L13.168 130.696C12.9973 130.824 12.7627 130.973 12.464 131.144C12.1653 131.272 11.888 131.336 11.632 131.336ZM42.8135 135.624C42.3442 135.624 41.9815 135.475 41.7255 135.176C41.4695 134.92 41.3415 134.579 41.3415 134.152V131.72C41.3415 131.293 41.4695 130.952 41.7255 130.696C41.9815 130.397 42.3442 130.248 42.8135 130.248H79.9335C80.3602 130.248 80.7015 130.397 80.9575 130.696C81.2562 130.952 81.4055 131.293 81.4055 131.72V134.152C81.4055 134.579 81.2562 134.92 80.9575 135.176C80.7015 135.475 80.3602 135.624 79.9335 135.624H42.8135Z" fill="#E2B7F4"/>
</g>
<defs>
<clipPath id="clip0_1_2">
<rect width="145" height="145" fill="white"/>
</clipPath>
</defs>
</svg>
